<?xml version="1.0" encoding="utf-8"?>
<svg width="55px" height="55px" viewbox="0 0 55 55" version="1.1" xmlns:xlink="http://www.w3.org/1999/xlink" xmlns="http://www.w3.org/2000/svg">
  <defs>
    <filter id="filter_1">
      <feColorMatrix in="SourceGraphic" type="matrix" values="0 0 0 0 0.4627451 0 0 0 0 0.45882353 0 0 0 0 0.46666667 0 0 0 1 0" />
    </filter>
  </defs>
  <g id="logout-24px" filter="url(#filter_1)">
    <g id="Group">
      <path d="M0 0L55 0L55 55L0 55L0 0Z" id="Rectangle" fill="none" fill-rule="evenodd" stroke="none" />
    </g>
    <g id="Group" transform="translate(4.5999756 6.875)">
      <path d="M34.3417 9.16667L31.1334 12.375L37.0917 18.3333L13.7167 18.3333L13.7167 22.9167L37.0917 22.9167L31.1334 28.875L34.3417 32.0833L45.8001 20.625L34.3417 9.16667L34.3417 9.16667ZM4.58335 36.6667L22.9167 36.6667L22.9167 41.25L4.58335 41.25C2.06252 41.25 1.71661e-05 39.1875 1.71661e-05 36.6667L1.71661e-05 4.58333C1.71661e-05 2.0625 2.06252 0 4.58335 0L22.9167 0L22.9167 4.58333L4.58335 4.58333L4.58335 36.6667L4.58335 36.6667Z" id="Shape" fill="#000000" fill-rule="evenodd" stroke="none" />
    </g>
  </g>
</svg>